<svg id="_3b64f6b7baf525b379c1b844bce8aa86" data-name="3b64f6b7baf525b379c1b844bce8aa86" xmlns="http://www.w3.org/2000/svg" width="19.67" height="19.67" viewBox="0 0 19.67 19.67">
  <path id="Tracé_3" data-name="Tracé 3" d="M0,0H19.67V19.67H0Z" fill="none"/>
  <path id="Tracé_4" data-name="Tracé 4" d="M10.188,2a8.2,8.2,0,1,0,8.2,8.2A8.192,8.192,0,0,0,10.188,2Zm5.68,4.918H13.45A12.826,12.826,0,0,0,12.319,4,6.581,6.581,0,0,1,15.868,6.918ZM10.2,3.672a11.545,11.545,0,0,1,1.565,3.246H8.631A11.545,11.545,0,0,1,10.2,3.672ZM3.852,11.835a6.411,6.411,0,0,1,0-3.278h2.77A13.536,13.536,0,0,0,6.508,10.2a13.536,13.536,0,0,0,.115,1.639Zm.672,1.639H6.942a12.826,12.826,0,0,0,1.131,2.918,6.546,6.546,0,0,1-3.549-2.918ZM6.942,6.918H4.524A6.546,6.546,0,0,1,8.073,4,12.826,12.826,0,0,0,6.942,6.918Zm3.254,9.8a11.545,11.545,0,0,1-1.565-3.246h3.131A11.545,11.545,0,0,1,10.2,16.72Zm1.918-4.885H8.278A12.058,12.058,0,0,1,8.147,10.2a11.954,11.954,0,0,1,.131-1.639h3.836a11.954,11.954,0,0,1,.131,1.639A12.059,12.059,0,0,1,12.114,11.835Zm.2,4.557a12.826,12.826,0,0,0,1.131-2.918h2.418A6.581,6.581,0,0,1,12.319,16.392Zm1.451-4.557a13.536,13.536,0,0,0,.115-1.639,13.536,13.536,0,0,0-.115-1.639h2.77a6.411,6.411,0,0,1,0,3.278Z" transform="translate(-0.361 -0.361)" fill="#151923"/>
</svg>
