<svg xmlns="http://www.w3.org/2000/svg" width="19.143" height="19.188" viewBox="0 0 19.143 19.188">
  <path id="_56bdce19a8c48f73e6f40cee79dfe7ff" data-name="56bdce19a8c48f73e6f40cee79dfe7ff" d="M16.482,14.047l-1.6.9a1.01,1.01,0,0,1-1.21-.166L8.328,9.439a1.011,1.011,0,0,1-.166-1.21l.9-1.6a1.515,1.515,0,0,0-.249-1.815l-2.4-2.4a1.515,1.515,0,0,0-2.142,0L3.183,3.5a4.04,4.04,0,0,0-.607,4.936l.547.911a31.669,31.669,0,0,0,11.444,11.2l.108.062a4.047,4.047,0,0,0,4.887-.636L20.7,18.84a1.515,1.515,0,0,0,0-2.142l-2.4-2.4a1.515,1.515,0,0,0-1.815-.25Z" transform="translate(-2 -1.97)" fill="#666"/>
</svg>
